<svg xmlns="http://www.w3.org/2000/svg" width="269.2" height="35" viewBox="0 0 269.2 35"><rect class="svg__rect" x="0" y="0" width="191.95" height="35" fill="#0E6626"/><rect class="svg__rect" x="189.95" y="0" width="79.25" height="35" fill="#1BDC51"/><path class="svg__text" d="M17.33 22L14.22 22L14.22 13.47L17.14 13.47Q18.59 13.47 19.34 14.05Q20.10 14.63 20.10 15.78L20.10 15.78Q20.10 16.36 19.78 16.83Q19.47 17.30 18.86 17.56L18.86 17.56Q19.55 17.75 19.93 18.26Q20.31 18.78 20.31 19.51L20.31 19.51Q20.31 20.71 19.53 21.36Q18.76 22 17.33 22L17.33 22ZM15.70 18.15L15.70 20.82L17.35 20.82Q18.04 20.82 18.44 20.47Q18.83 20.13 18.83 19.51L18.83 19.51Q18.83 18.18 17.47 18.15L17.47 18.15L15.70 18.15ZM15.70 14.66L15.70 17.06L17.15 17.06Q17.84 17.06 18.23 16.75Q18.62 16.43 18.62 15.86L18.62 15.86Q18.62 15.23 18.26 14.95Q17.90 14.66 17.14 14.66L17.14 14.66L15.70 14.66ZM24.64 19.16L24.64 19.16L24.64 13.47L26.12 13.47L26.12 19.18Q26.12 20.03 26.55 20.48Q26.98 20.93 27.83 20.93L27.83 20.93Q29.54 20.93 29.54 19.13L29.54 19.13L29.54 13.47L31.02 13.47L31.02 19.17Q31.02 20.53 30.15 21.32Q29.28 22.12 27.83 22.12L27.83 22.12Q26.36 22.12 25.50 21.33Q24.64 20.55 24.64 19.16ZM37.15 22L35.67 22L35.67 13.47L37.15 13.47L37.15 22ZM47.32 22L41.96 22L41.96 13.47L43.44 13.47L43.44 20.82L47.32 20.82L47.32 22ZM53.12 14.66L50.49 14.66L50.49 13.47L57.25 13.47L57.25 14.66L54.59 14.66L54.59 22L53.12 22L53.12 14.66ZM68.37 22L66.40 13.47L67.87 13.47L69.20 19.88L70.82 13.47L72.07 13.47L73.68 19.89L74.99 13.47L76.46 13.47L74.49 22L73.07 22L71.45 15.77L69.79 22L68.37 22ZM82.10 22L80.62 22L80.62 13.47L82.10 13.47L82.10 22ZM88.59 14.66L85.95 14.66L85.95 13.47L92.72 13.47L92.72 14.66L90.06 14.66L90.06 22L88.59 22L88.59 14.66ZM97.96 22L96.48 22L96.48 13.47L97.96 13.47L97.96 17.02L101.77 17.02L101.77 13.47L103.25 13.47L103.25 22L101.77 22L101.77 18.21L97.96 18.21L97.96 22ZM119.32 22L113.97 22L113.97 13.47L115.45 13.47L115.45 20.82L119.32 20.82L119.32 22ZM123.18 18.00L123.18 18.00L123.18 17.52Q123.18 16.28 123.62 15.32Q124.06 14.37 124.87 13.86Q125.67 13.35 126.72 13.35Q127.76 13.35 128.57 13.85Q129.37 14.35 129.81 15.29Q130.25 16.23 130.26 17.48L130.26 17.48L130.26 17.96Q130.26 19.21 129.82 20.16Q129.39 21.10 128.58 21.61Q127.78 22.12 126.73 22.12L126.73 22.12Q125.69 22.12 124.88 21.61Q124.07 21.10 123.63 20.17Q123.18 19.23 123.18 18.00ZM124.66 17.46L124.66 17.96Q124.66 19.36 125.21 20.13Q125.76 20.90 126.73 20.90L126.73 20.90Q127.71 20.90 128.24 20.15Q128.77 19.40 128.77 17.96L128.77 17.96L128.77 17.51Q128.77 16.09 128.24 15.34Q127.70 14.58 126.72 14.58L126.72 14.58Q125.76 14.58 125.21 15.33Q124.67 16.09 124.66 17.46L124.66 17.46ZM137.02 22L133.96 13.47L135.58 13.47L137.73 20.14L139.89 13.47L141.52 13.47L138.45 22L137.02 22ZM151.05 22L145.47 22L145.47 13.47L151.01 13.47L151.01 14.66L146.96 14.66L146.96 17.02L150.46 17.02L150.46 18.19L146.96 18.19L146.96 20.82L151.05 20.82L151.05 22ZM164.33 22L161.22 22L161.22 13.47L164.15 13.47Q165.59 13.47 166.35 14.05Q167.11 14.63 167.11 15.78L167.11 15.78Q167.11 16.36 166.79 16.83Q166.47 17.30 165.86 17.56L165.86 17.56Q166.56 17.75 166.93 18.26Q167.31 18.78 167.31 19.51L167.31 19.51Q167.31 20.71 166.54 21.36Q165.77 22 164.33 22L164.33 22ZM162.71 18.15L162.71 20.82L164.35 20.82Q165.05 20.82 165.44 20.47Q165.83 20.13 165.83 19.51L165.83 19.51Q165.83 18.18 164.47 18.15L164.47 18.15L162.71 18.15ZM162.71 14.66L162.71 17.06L164.16 17.06Q164.85 17.06 165.24 16.75Q165.63 16.43 165.63 15.86L165.63 15.86Q165.63 15.23 165.27 14.95Q164.91 14.66 164.15 14.66L164.15 14.66L162.71 14.66ZM173.82 18.86L170.96 13.47L172.60 13.47L174.56 17.51L176.53 13.47L178.17 13.47L175.31 18.86L175.31 22L173.82 22L173.82 18.86Z" fill="#FFFFFF"/><path class="svg__text" d="M203.55 21.24L203.55 21.24L204.33 19.49Q204.89 19.86 205.64 20.09Q206.38 20.32 207.10 20.32L207.10 20.32Q208.47 20.32 208.47 19.64L208.47 19.64Q208.47 19.28 208.08 19.11Q207.69 18.93 206.83 18.74L206.83 18.74Q205.88 18.53 205.24 18.30Q204.61 18.06 204.15 17.55Q203.70 17.03 203.70 16.16L203.70 16.16Q203.70 15.39 204.12 14.77Q204.54 14.15 205.37 13.79Q206.21 13.43 207.41 13.43L207.41 13.43Q208.24 13.43 209.05 13.62Q209.85 13.80 210.47 14.17L210.47 14.17L209.73 15.93Q208.53 15.28 207.40 15.28L207.40 15.28Q206.69 15.28 206.37 15.49Q206.05 15.70 206.05 16.04L206.05 16.04Q206.05 16.37 206.43 16.54Q206.82 16.71 207.67 16.89L207.67 16.89Q208.63 17.10 209.26 17.33Q209.89 17.56 210.35 18.07Q210.81 18.58 210.81 19.46L210.81 19.46Q210.81 20.21 210.39 20.83Q209.97 21.44 209.13 21.80Q208.29 22.17 207.09 22.17L207.09 22.17Q206.07 22.17 205.11 21.92Q204.15 21.67 203.55 21.24ZM217.51 18.95L214.31 13.60L216.82 13.60L218.81 16.94L220.80 13.60L223.10 13.60L219.89 18.99L219.89 22L217.51 22L217.51 18.95ZM229.52 22L227.19 22L227.19 13.60L229.15 13.60L232.85 18.07L232.85 13.60L235.18 13.60L235.18 22L233.23 22L229.52 17.52L229.52 22ZM242.72 22L240.34 22L240.34 13.60L242.72 13.60L242.72 22ZM247.47 17.80L247.47 17.80Q247.47 16.55 248.07 15.55Q248.67 14.56 249.74 14.00Q250.80 13.43 252.13 13.43L252.13 13.43Q253.46 13.43 254.53 14.00Q255.59 14.56 256.20 15.55Q256.80 16.55 256.80 17.80L256.80 17.80Q256.80 19.05 256.20 20.04Q255.59 21.04 254.53 21.60Q253.47 22.17 252.13 22.17L252.13 22.17Q250.80 22.17 249.74 21.60Q248.67 21.04 248.07 20.04Q247.47 19.05 247.47 17.80ZM249.86 17.80L249.86 17.80Q249.86 18.51 250.17 19.05Q250.47 19.60 250.98 19.90Q251.50 20.20 252.13 20.20L252.13 20.20Q252.77 20.20 253.29 19.90Q253.80 19.60 254.10 19.05Q254.40 18.51 254.40 17.80L254.40 17.80Q254.40 17.09 254.10 16.54Q253.80 16 253.29 15.70Q252.77 15.40 252.13 15.40L252.13 15.40Q251.49 15.40 250.98 15.70Q250.47 16 250.17 16.54Q249.86 17.09 249.86 17.80Z" fill="#FFFFFF" x="202.95"/></svg>