<?xml version="1.0" standalone="no"?>
<!DOCTYPE svg PUBLIC "-//W3C//DTD SVG 20010904//EN"
 "http://www.w3.org/TR/2001/REC-SVG-20010904/DTD/svg10.dtd">
<svg xmlns="http://www.w3.org/2000/svg"
     width="703.000000pt" height="703.000000pt" viewBox="0 0 703.000000 703.000000"
     preserveAspectRatio="xMidYMid meet">
<g transform="translate(0.000000,703.000000) scale(0.100000,-0.100000)"
fill="#000000" stroke="none">
<path d="M0 6365 l0 -665 665 0 665 0 0 665 0 665 -665 0 -665 0 0 -665z
m1140 0 l0 -475 -475 0 -475 0 0 475 0 475 475 0 475 0 0 -475z"/>
<path d="M380 6365 l0 -285 285 0 285 0 0 285 0 285 -285 0 -285 0 0 -285z"/>
<path d="M1900 6840 l0 -190 95 0 95 0 0 190 0 190 -95 0 -95 0 0 -190z"/>
<path d="M2280 6935 l0 -95 285 0 285 0 0 -95 0 -95 -95 0 -95 0 0 -95 0 -95
-95 0 -95 0 0 95 0 95 -95 0 -95 0 0 -190 0 -190 95 0 95 0 0 -95 0 -95 -190
0 -190 0 0 -95 0 -95 -95 0 -95 0 0 190 0 190 95 0 95 0 0 95 0 95 -285 0
-285 0 0 -95 0 -95 95 0 95 0 0 -95 0 -95 -95 0 -95 0 0 -190 0 -190 95 0 95
0 0 -95 0 -95 -285 0 -285 0 0 -95 0 -95 190 0 190 0 0 -95 0 -95 -380 0 -380
0 0 95 0 95 95 0 95 0 0 95 0 95 -475 0 -475 0 0 -285 0 -285 95 0 95 0 0 190
0 190 95 0 95 0 0 -95 0 -95 190 0 190 0 0 -95 0 -95 -95 0 -95 0 0 -95 0 -95
-95 0 -95 0 0 -190 0 -190 -95 0 -95 0 0 -95 0 -95 -95 0 -95 0 0 -190 0 -190
95 0 95 0 0 -95 0 -95 -95 0 -95 0 0 -190 0 -190 95 0 95 0 0 -95 0 -95 95 0
95 0 0 190 0 190 190 0 190 0 0 -95 0 -95 -95 0 -95 0 0 -190 0 -190 95 0 95
0 0 -95 0 -95 95 0 95 0 0 -95 0 -95 -95 0 -95 0 0 -95 0 -95 -95 0 -95 0 0
95 0 95 -95 0 -95 0 0 190 0 190 -190 0 -190 0 0 -95 0 -95 95 0 95 0 0 -190
0 -190 -95 0 -95 0 0 -380 0 -380 95 0 95 0 0 380 0 380 190 0 190 0 0 -95 0
-95 95 0 95 0 0 -285 0 -285 380 0 380 0 0 -190 0 -190 95 0 95 0 0 -95 0 -95
-95 0 -95 0 0 -475 0 -475 285 0 285 0 0 95 0 95 -190 0 -190 0 0 285 0 285
95 0 95 0 0 190 0 190 95 0 95 0 0 -190 0 -190 95 0 95 0 0 -95 0 -95 95 0 95
0 0 -95 0 -95 -95 0 -95 0 0 -190 0 -190 95 0 95 0 0 95 0 95 95 0 95 0 0 -95
0 -95 95 0 95 0 0 95 0 95 -95 0 -95 0 0 95 0 95 190 0 190 0 0 -95 0 -95 95
0 95 0 0 -95 0 -95 95 0 95 0 0 95 0 95 -95 0 -95 0 0 95 0 95 95 0 95 0 0 95
0 95 285 0 285 0 0 -190 0 -190 -95 0 -95 0 0 -95 0 -95 95 0 95 0 0 95 0 95
190 0 190 0 0 190 0 190 95 0 95 0 0 95 0 95 285 0 285 0 0 -190 0 -190 -95 0
-95 0 0 95 0 95 -95 0 -95 0 0 -95 0 -95 -95 0 -95 0 0 -190 0 -190 285 0 285
0 0 190 0 190 95 0 95 0 0 -95 0 -95 190 0 190 0 0 -95 0 -95 665 0 665 0 0
380 0 380 -95 0 -95 0 0 95 0 95 -190 0 -190 0 0 -95 0 -95 -95 0 -95 0 0 285
0 285 95 0 95 0 0 95 0 95 95 0 95 0 0 95 0 95 -95 0 -95 0 0 95 0 95 285 0
285 0 0 95 0 95 -285 0 -285 0 0 95 0 95 95 0 95 0 0 95 0 95 190 0 190 0 0
190 0 190 -95 0 -95 0 0 95 0 95 95 0 95 0 0 285 0 285 -190 0 -190 0 0 190 0
190 95 0 95 0 0 -95 0 -95 95 0 95 0 0 95 0 95 -95 0 -95 0 0 95 0 95 95 0 95
0 0 95 0 95 -190 0 -190 0 0 95 0 95 95 0 95 0 0 190 0 190 95 0 95 0 0 95 0
95 -190 0 -190 0 0 95 0 95 95 0 95 0 0 95 0 95 -95 0 -95 0 0 -95 0 -95 -95
0 -95 0 0 95 0 95 -95 0 -95 0 0 -190 0 -190 -95 0 -95 0 0 190 0 190 -95 0
-95 0 0 -190 0 -190 -95 0 -95 0 0 190 0 190 -285 0 -285 0 0 -95 0 -95 -95 0
-95 0 0 95 0 95 -95 0 -95 0 0 -95 0 -95 95 0 95 0 0 -95 0 -95 95 0 95 0 0
-95 0 -95 95 0 95 0 0 -95 0 -95 -95 0 -95 0 0 -95 0 -95 -95 0 -95 0 0 95 0
95 -95 0 -95 0 0 -95 0 -95 -190 0 -190 0 0 95 0 95 95 0 95 0 0 95 0 95 95 0
95 0 0 95 0 95 -95 0 -95 0 0 95 0 95 -95 0 -95 0 0 95 0 95 95 0 95 0 0 95 0
95 95 0 95 0 0 190 0 190 190 0 190 0 0 -95 0 -95 -95 0 -95 0 0 -95 0 -95 95
0 95 0 0 95 0 95 95 0 95 0 0 -95 0 -95 95 0 95 0 0 380 0 380 -95 0 -95 0 0
-190 0 -190 -95 0 -95 0 0 190 0 190 -380 0 -380 0 0 190 0 190 95 0 95 0 0
-95 0 -95 95 0 95 0 0 190 0 190 -285 0 -285 0 0 -190 0 -190 -95 0 -95 0 0
95 0 95 -95 0 -95 0 0 95 0 95 -95 0 -95 0 0 -95 0 -95 -380 0 -380 0 0 95 0
95 -285 0 -285 0 0 -95z m1520 -285 l0 -190 190 0 190 0 0 -95 0 -95 95 0 95
0 0 -95 0 -95 95 0 95 0 0 95 0 95 95 0 95 0 0 -95 0 -95 -95 0 -95 0 0 -190
0 -190 -95 0 -95 0 0 190 0 190 -285 0 -285 0 0 -190 0 -190 -95 0 -95 0 0
190 0 190 -95 0 -95 0 0 -285 0 -285 380 0 380 0 0 -95 0 -95 95 0 95 0 0 -95
0 -95 95 0 95 0 0 -95 0 -95 -95 0 -95 0 0 95 0 95 -95 0 -95 0 0 95 0 95
-380 0 -380 0 0 -95 0 -95 285 0 285 0 0 -190 0 -190 95 0 95 0 0 -95 0 -95
-95 0 -95 0 0 95 0 95 -95 0 -95 0 0 -95 0 -95 -190 0 -190 0 0 95 0 95 -95 0
-95 0 0 190 0 190 -190 0 -190 0 0 -190 0 -190 95 0 95 0 0 -95 0 -95 95 0 95
0 0 -95 0 -95 -190 0 -190 0 0 -95 0 -95 -95 0 -95 0 0 -95 0 -95 95 0 95 0 0
-95 0 -95 95 0 95 0 0 95 0 95 95 0 95 0 0 95 0 95 95 0 95 0 0 95 0 95 190 0
190 0 0 -95 0 -95 -95 0 -95 0 0 -190 0 -190 -95 0 -95 0 0 95 0 95 -95 0 -95
0 0 -95 0 -95 -95 0 -95 0 0 -95 0 -95 -95 0 -95 0 0 -95 0 -95 -95 0 -95 0 0
-95 0 -95 285 0 285 0 0 95 0 95 95 0 95 0 0 95 0 95 570 0 570 0 0 190 0 190
-95 0 -95 0 0 95 0 95 -190 0 -190 0 0 95 0 95 285 0 285 0 0 -190 0 -190 95
0 95 0 0 95 0 95 95 0 95 0 0 -95 0 -95 -95 0 -95 0 0 -95 0 -95 190 0 190 0
0 95 0 95 95 0 95 0 0 190 0 190 -95 0 -95 0 0 95 0 95 95 0 95 0 0 95 0 95
95 0 95 0 0 -95 0 -95 -95 0 -95 0 0 -95 0 -95 95 0 95 0 0 -95 0 -95 190 0
190 0 0 95 0 95 -95 0 -95 0 0 95 0 95 95 0 95 0 0 95 0 95 95 0 95 0 0 -95 0
-95 190 0 190 0 0 -95 0 -95 -95 0 -95 0 0 -190 0 -190 95 0 95 0 0 95 0 95
95 0 95 0 0 -95 0 -95 -95 0 -95 0 0 -95 0 -95 -95 0 -95 0 0 -95 0 -95 -95 0
-95 0 0 -95 0 -95 380 0 380 0 0 -95 0 -95 -475 0 -475 0 0 190 0 190 -95 0
-95 0 0 -95 0 -95 -95 0 -95 0 0 -95 0 -95 95 0 95 0 0 -95 0 -95 95 0 95 0 0
-95 0 -95 95 0 95 0 0 95 0 95 95 0 95 0 0 -190 0 -190 190 0 190 0 0 -95 0
-95 -380 0 -380 0 0 95 0 95 -95 0 -95 0 0 -95 0 -95 -190 0 -190 0 0 190 0
190 -95 0 -95 0 0 95 0 95 95 0 95 0 0 -95 0 -95 190 0 190 0 0 95 0 95 -95 0
-95 0 0 95 0 95 -95 0 -95 0 0 190 0 190 -285 0 -285 0 0 -95 0 -95 190 0 190
0 0 -95 0 -95 -190 0 -190 0 0 -95 0 -95 95 0 95 0 0 -190 0 -190 95 0 95 0 0
-95 0 -95 -190 0 -190 0 0 -95 0 -95 285 0 285 0 0 -95 0 -95 -95 0 -95 0 0
-95 0 -95 95 0 95 0 0 -95 0 -95 -95 0 -95 0 0 95 0 95 -95 0 -95 0 0 -95 0
-95 -95 0 -95 0 0 95 0 95 -190 0 -190 0 0 95 0 95 -95 0 -95 0 0 -95 0 -95
-95 0 -95 0 0 -95 0 -95 95 0 95 0 0 -95 0 -95 95 0 95 0 0 95 0 95 95 0 95 0
0 -95 0 -95 190 0 190 0 0 -190 0 -190 95 0 95 0 0 190 0 190 95 0 95 0 0
-285 0 -285 -475 0 -475 0 0 -95 0 -95 -95 0 -95 0 0 -95 0 -95 -95 0 -95 0 0
95 0 95 -285 0 -285 0 0 95 0 95 -95 0 -95 0 0 -285 0 -285 -95 0 -95 0 0 95
0 95 -190 0 -190 0 0 95 0 95 -190 0 -190 0 0 190 0 190 190 0 190 0 0 95 0
95 -285 0 -285 0 0 380 0 380 -285 0 -285 0 0 -95 0 -95 95 0 95 0 0 -95 0
-95 95 0 95 0 0 -285 0 -285 -95 0 -95 0 0 190 0 190 -95 0 -95 0 0 95 0 95
-190 0 -190 0 0 95 0 95 -95 0 -95 0 0 95 0 95 -95 0 -95 0 0 95 0 95 380 0
380 0 0 95 0 95 -190 0 -190 0 0 95 0 95 -95 0 -95 0 0 95 0 95 95 0 95 0 0
95 0 95 190 0 190 0 0 -285 0 -285 95 0 95 0 0 190 0 190 190 0 190 0 0 190 0
190 -95 0 -95 0 0 -95 0 -95 -95 0 -95 0 0 95 0 95 -95 0 -95 0 0 95 0 95 -95
0 -95 0 0 -95 0 -95 -95 0 -95 0 0 95 0 95 95 0 95 0 0 95 0 95 -190 0 -190 0
0 -95 0 -95 -95 0 -95 0 0 95 0 95 -190 0 -190 0 0 95 0 95 -95 0 -95 0 0 95
0 95 95 0 95 0 0 95 0 95 95 0 95 0 0 -190 0 -190 95 0 95 0 0 190 0 190 285
0 285 0 0 -95 0 -95 95 0 95 0 0 190 0 190 95 0 95 0 0 95 0 95 -190 0 -190 0
0 -95 0 -95 -95 0 -95 0 0 95 0 95 -190 0 -190 0 0 95 0 95 95 0 95 0 0 95 0
95 190 0 190 0 0 -95 0 -95 95 0 95 0 0 95 0 95 95 0 95 0 0 190 0 190 95 0
95 0 0 95 0 95 95 0 95 0 0 -95 0 -95 95 0 95 0 0 190 0 190 -95 0 -95 0 0 95
0 95 95 0 95 0 0 -95 0 -95 95 0 95 0 0 190 0 190 190 0 190 0 0 95 0 95 -95
0 -95 0 0 95 0 95 95 0 95 0 0 -95 0 -95 380 0 380 0 0 285 0 285 95 0 95 0 0
-190z m-380 -95 l0 -95 -95 0 -95 0 0 95 0 95 95 0 95 0 0 -95z m-1520 -760
l0 -95 -95 0 -95 0 0 95 0 95 95 0 95 0 0 -95z m2280 0 l0 -95 -95 0 -95 0 0
95 0 95 95 0 95 0 0 -95z m1330 -570 l0 -95 95 0 95 0 0 -95 0 -95 -95 0 -95
0 0 95 0 95 -190 0 -190 0 0 95 0 95 190 0 190 0 0 -95z m570 -190 l0 -95 -95
0 -95 0 0 95 0 95 95 0 95 0 0 -95z m570 -95 l0 -190 -190 0 -190 0 0 190 0
190 190 0 190 0 0 -190z m-1710 -475 l0 -95 -95 0 -95 0 0 95 0 95 95 0 95 0
0 -95z m-760 -570 l0 -95 -190 0 -190 0 0 95 0 95 190 0 190 0 0 -95z m-3230
-760 l0 -95 -95 0 -95 0 0 95 0 95 95 0 95 0 0 -95z m5700 -190 l0 -95 -95 0
-95 0 0 95 0 95 95 0 95 0 0 -95z m-760 -760 l0 -95 95 0 95 0 0 95 0 95 95 0
95 0 0 -95 0 -95 95 0 95 0 0 -95 0 -95 -190 0 -190 0 0 -95 0 -95 -190 0
-190 0 0 95 0 95 95 0 95 0 0 95 0 95 -95 0 -95 0 0 95 0 95 95 0 95 0 0 -95z
m570 -570 l0 -95 -95 0 -95 0 0 95 0 95 95 0 95 0 0 -95z m-380 -380 l0 -285
-285 0 -285 0 0 285 0 285 285 0 285 0 0 -285z m570 -665 l0 -190 95 0 95 0 0
-95 0 -95 -380 0 -380 0 0 190 0 190 190 0 190 0 0 95 0 95 95 0 95 0 0 -190z
m-760 -190 l0 -190 -95 0 -95 0 0 95 0 95 -190 0 -190 0 0 95 0 95 285 0 285
0 0 -190z m-950 -95 l0 -95 -95 0 -95 0 0 95 0 95 95 0 95 0 0 -95z"/>
<path d="M3610 6175 l0 -95 95 0 95 0 0 95 0 95 -95 0 -95 0 0 -95z"/>
<path d="M2850 5985 l0 -95 -95 0 -95 0 0 -95 0 -95 95 0 95 0 0 -190 0 -190
-95 0 -95 0 0 95 0 95 -95 0 -95 0 0 -95 0 -95 -95 0 -95 0 0 -95 0 -95 95 0
95 0 0 95 0 95 95 0 95 0 0 -95 0 -95 95 0 95 0 0 95 0 95 190 0 190 0 0 95 0
95 -95 0 -95 0 0 95 0 95 95 0 95 0 0 190 0 190 -190 0 -190 0 0 -95z m190
-190 l0 -95 -95 0 -95 0 0 95 0 95 95 0 95 0 0 -95z"/>
<path d="M1900 5225 l0 -95 95 0 95 0 0 95 0 95 -95 0 -95 0 0 -95z"/>
<path d="M1710 4750 l0 -190 190 0 190 0 0 190 0 190 -190 0 -190 0 0 -190z"/>
<path d="M2280 4750 l0 -190 190 0 190 0 0 -95 0 -95 -285 0 -285 0 0 -95 0
-95 -95 0 -95 0 0 -95 0 -95 95 0 95 0 0 -95 0 -95 -285 0 -285 0 0 -95 0 -95
95 0 95 0 0 -190 0 -190 95 0 95 0 0 190 0 190 95 0 95 0 0 95 0 95 95 0 95 0
0 -95 0 -95 95 0 95 0 0 95 0 95 95 0 95 0 0 -95 0 -95 95 0 95 0 0 95 0 95
-95 0 -95 0 0 95 0 95 -95 0 -95 0 0 -95 0 -95 -95 0 -95 0 0 190 0 190 190 0
190 0 0 95 0 95 95 0 95 0 0 95 0 95 -95 0 -95 0 0 95 0 95 -95 0 -95 0 0 95
0 95 -95 0 -95 0 0 -190z"/>
<path d="M3420 4845 l0 -95 190 0 190 0 0 95 0 95 -190 0 -190 0 0 -95z"/>
<path d="M1140 4655 l0 -95 95 0 95 0 0 95 0 95 -95 0 -95 0 0 -95z"/>
<path d="M5890 4465 l0 -95 95 0 95 0 0 95 0 95 -95 0 -95 0 0 -95z"/>
<path d="M5890 4085 l0 -95 -285 0 -285 0 0 -190 0 -190 190 0 190 0 0 95 0
95 95 0 95 0 0 -95 0 -95 95 0 95 0 0 95 0 95 95 0 95 0 0 95 0 95 -95 0 -95
0 0 95 0 95 -95 0 -95 0 0 -95z"/>
<path d="M1140 3895 l0 -95 95 0 95 0 0 95 0 95 -95 0 -95 0 0 -95z"/>
<path d="M2280 3230 l0 -190 190 0 190 0 0 -95 0 -95 -285 0 -285 0 0 -285 0
-285 95 0 95 0 0 -95 0 -95 95 0 95 0 0 -95 0 -95 -95 0 -95 0 0 -190 0 -190
190 0 190 0 0 -95 0 -95 95 0 95 0 0 -95 0 -95 95 0 95 0 0 -95 0 -95 -95 0
-95 0 0 -95 0 -95 95 0 95 0 0 95 0 95 95 0 95 0 0 95 0 95 -95 0 -95 0 0 95
0 95 190 0 190 0 0 -95 0 -95 95 0 95 0 0 -95 0 -95 95 0 95 0 0 95 0 95 -95
0 -95 0 0 95 0 95 95 0 95 0 0 95 0 95 95 0 95 0 0 -285 0 -285 190 0 190 0 0
190 0 190 95 0 95 0 0 95 0 95 -95 0 -95 0 0 -95 0 -95 -95 0 -95 0 0 95 0 95
-95 0 -95 0 0 95 0 95 -95 0 -95 0 0 -95 0 -95 -190 0 -190 0 0 95 0 95 95 0
95 0 0 95 0 95 -95 0 -95 0 0 -95 0 -95 -95 0 -95 0 0 95 0 95 -95 0 -95 0 0
95 0 95 95 0 95 0 0 95 0 95 95 0 95 0 0 95 0 95 -95 0 -95 0 0 -95 0 -95 -95
0 -95 0 0 -95 0 -95 -95 0 -95 0 0 95 0 95 -95 0 -95 0 0 95 0 95 190 0 190 0
0 95 0 95 95 0 95 0 0 190 0 190 95 0 95 0 0 -190 0 -190 95 0 95 0 0 95 0 95
95 0 95 0 0 190 0 190 190 0 190 0 0 -95 0 -95 -95 0 -95 0 0 -190 0 -190 -95
0 -95 0 0 -190 0 -190 -95 0 -95 0 0 -95 0 -95 285 0 285 0 0 95 0 95 95 0 95
0 0 -95 0 -95 190 0 190 0 0 95 0 95 -190 0 -190 0 0 190 0 190 -95 0 -95 0 0
190 0 190 95 0 95 0 0 -95 0 -95 95 0 95 0 0 95 0 95 -95 0 -95 0 0 95 0 95
190 0 190 0 0 95 0 95 -665 0 -665 0 0 -95 0 -95 -95 0 -95 0 0 -95 0 -95 -95
0 -95 0 0 -95 0 -95 -95 0 -95 0 0 95 0 95 -95 0 -95 0 0 95 0 95 -95 0 -95 0
0 95 0 95 -95 0 -95 0 0 -190z m1330 -95 l0 -95 -95 0 -95 0 0 95 0 95 95 0
95 0 0 -95z m-950 -570 l0 -95 -95 0 -95 0 0 -95 0 -95 95 0 95 0 0 -95 0 -95
95 0 95 0 0 -95 0 -95 -95 0 -95 0 0 -95 0 -95 95 0 95 0 0 -95 0 -95 95 0 95
0 0 -95 0 -95 -95 0 -95 0 0 95 0 95 -95 0 -95 0 0 95 0 95 -95 0 -95 0 0 95
0 95 95 0 95 0 0 95 0 95 -95 0 -95 0 0 95 0 95 -95 0 -95 0 0 190 0 190 190
0 190 0 0 -95z m1520 -190 l0 -95 -95 0 -95 0 0 95 0 95 95 0 95 0 0 -95z"/>
<path d="M1140 2755 l0 -95 95 0 95 0 0 95 0 95 -95 0 -95 0 0 -95z"/>
<path d="M1140 1995 l0 -95 95 0 95 0 0 95 0 95 -95 0 -95 0 0 -95z"/>
<path d="M5700 1235 l0 -95 95 0 95 0 0 95 0 95 -95 0 -95 0 0 -95z"/>
<path d="M4940 6840 l0 -190 190 0 190 0 0 95 0 95 -95 0 -95 0 0 95 0 95 -95
0 -95 0 0 -190z"/>
<path d="M5700 6365 l0 -665 665 0 665 0 0 665 0 665 -665 0 -665 0 0 -665z
m1140 0 l0 -475 -475 0 -475 0 0 475 0 475 475 0 475 0 0 -475z"/>
<path d="M6080 6365 l0 -285 285 0 285 0 0 285 0 285 -285 0 -285 0 0 -285z"/>
<path d="M1520 6745 l0 -95 95 0 95 0 0 95 0 95 -95 0 -95 0 0 -95z"/>
<path d="M0 4655 l0 -95 95 0 95 0 0 95 0 95 -95 0 -95 0 0 -95z"/>
<path d="M380 1615 l0 -95 95 0 95 0 0 95 0 95 -95 0 -95 0 0 -95z"/>
<path d="M6840 1615 l0 -95 95 0 95 0 0 95 0 95 -95 0 -95 0 0 -95z"/>
<path d="M0 665 l0 -665 665 0 665 0 0 665 0 665 -665 0 -665 0 0 -665z m1140
0 l0 -475 -475 0 -475 0 0 475 0 475 475 0 475 0 0 -475z"/>
<path d="M380 665 l0 -285 285 0 285 0 0 285 0 285 -285 0 -285 0 0 -285z"/>
<path d="M6650 1235 l0 -95 190 0 190 0 0 95 0 95 -190 0 -190 0 0 -95z"/>
<path d="M1900 475 l0 -95 95 0 95 0 0 95 0 95 -95 0 -95 0 0 -95z"/>
</g>
</svg>