<?xml version="1.0" encoding="UTF-8" standalone="no"?>
<svg
   xmlns:dc="http://purl.org/dc/elements/1.1/"
   xmlns:cc="http://creativecommons.org/ns#"
   xmlns:rdf="http://www.w3.org/1999/02/22-rdf-syntax-ns#"
   xmlns:svg="http://www.w3.org/2000/svg"
   xmlns="http://www.w3.org/2000/svg"
   xmlns:sodipodi="http://sodipodi.sourceforge.net/DTD/sodipodi-0.dtd"
   xmlns:inkscape="http://www.inkscape.org/namespaces/inkscape"
   width="703pt"
   height="703pt"
   viewBox="0 0 703 703"
   preserveAspectRatio="xMidYMid meet"
   version="1.1"
   id="svg62"
   sodipodi:docname="qr_paypal.svg"
   inkscape:version="0.92.4 (5da689c313, 2019-01-14)">
  <metadata
     id="metadata68">
    <rdf:RDF>
      <cc:Work
         rdf:about="">
        <dc:format>image/svg+xml</dc:format>
        <dc:type
           rdf:resource="http://purl.org/dc/dcmitype/StillImage" />
        <dc:title></dc:title>
      </cc:Work>
    </rdf:RDF>
  </metadata>
  <defs
     id="defs66" />
  <sodipodi:namedview
     pagecolor="#ffffff"
     bordercolor="#666666"
     borderopacity="1"
     objecttolerance="10"
     gridtolerance="10"
     guidetolerance="10"
     inkscape:pageopacity="0"
     inkscape:pageshadow="2"
     inkscape:window-width="1920"
     inkscape:window-height="1017"
     id="namedview64"
     showgrid="false"
     inkscape:zoom="0.50355619"
     inkscape:cx="212.05338"
     inkscape:cy="289.803"
     inkscape:window-x="-8"
     inkscape:window-y="-8"
     inkscape:window-maximized="1"
     inkscape:current-layer="g60"
     units="pt" />
  <g
     transform="matrix(0.1,0,0,-0.1,0,703)"
     id="g60"
     style="fill:#000000;stroke:none">
    <path
       style="fill:#000000;stroke-width:1"
       d="m 741.44546,-2.6129395e-4 h -741.445363706056 v 741.44567129395 v 741.44519 h 741.445363706056 h 741.44534 v -741.44519 v -741.44567129395 z m 0,219.68747129395 h 521.75784 v 521.7582 v 521.75779 h -521.75784 h -521.7577 v -521.75779 v -521.7582 z m 0,219.6878 h -302.0703 v 302.0704 v 302.07029 h 302.0703 h 302.07044 v -302.07029 v -302.0704 z m 1070.97664,-439.37527129395 h -109.8438 v 219.68747129395 v 219.6878 h 109.8438 h 109.8438 v 109.8438 v 109.8437 h 109.8437 h 109.8437 v 109.8439 v 109.8437 h -219.6874 h -219.6876 v 192.22649 v 192.2266 h 109.8438 h 109.8438 v 109.8437 v 109.8437 h -109.8438 h -109.8438 v 219.6876 v 219.6875 h 109.8438 h 109.8438 v -109.8438 v -109.8437 h 109.8437 h 109.8437 v 109.8437 v 109.8438 h 109.8438 h 109.8437 v 109.8437 v 109.8437 h -109.8437 h -109.8438 v 109.8438 v 109.8438 h -109.8437 h -109.8437 v 109.8438 v 109.8437 h -109.8438 h -109.8438 v -219.6875 v -219.6876 h -219.6875 h -219.6875 v -109.8437 v -109.8437 h 109.8438 h 109.8437 v -109.8438 v -109.8437 h -219.6875 h -219.6874 v 109.8437 v 109.8438 h -82.38294 h -82.3828 v 109.8437 v 109.8437 h 82.3828 h 82.38294 v 302.0704 v 302.0703 h 219.6874 h 219.6875 v -82.3828 v -82.3828 h 109.8437 h 109.8438 v 82.3828 v 82.3828 h 109.8438 h 109.8438 v 109.8437 v 109.8437 h -109.8438 h -109.8438 v 219.6876 v 219.6875 h -329.5312 h -329.5312 v -109.8437 v -109.8438 h 219.6874 h 219.6875 v -109.8437 v -109.8439 h -219.6875 h -219.6874 v 109.8439 v 109.8437 h -82.38294 h -82.3828 v 109.8438 v 109.8437 h 82.3828 h 82.38294 v 109.8437 v 109.8438 h -82.38294 h -82.3828 v 109.8437 v 109.8439 h -329.5312 h -329.5312 v -219.6876 v -219.6875 h 109.8437 h 109.8437 v 109.8437 v 109.8438 h 109.8438 h 109.8437 v -219.6875 v -219.6875 h -109.8437 h -109.8438 v -302.0704 v -302.0702 h 109.8438 h 109.8437 v 82.3828 v 82.3828 h 109.8437 h 109.8438 v -82.3828 v -82.3828 h -109.8438 h -109.8437 v -109.8437 v -109.8438 h 109.8437 h 109.8438 v -109.8438 v -109.8438 h -109.8438 h -109.8437 v -219.6874 v -219.6875 h -329.5312 h -329.531363706055 v 109.8437 v 109.8438 h 219.687663706055 h 219.6874 v 109.8437 v 109.8437 h 109.8438 h 109.8437 v 109.8438 v 109.8438 h -109.8437 h -109.8438 v 109.8438 v 109.8437 h -109.8437 h -109.8437 v -109.8437 v -109.8438 h -109.8439 h -109.843763706055 v 741.4453 v 741.4454 h 109.843763706055 h 109.8439 v 109.8437 v 109.8437 h -109.8439 h -109.843763706055 v 109.8437 v 109.8438 h 109.843763706055 h 109.8439 v -109.8438 v -109.8437 h 219.6874 h 219.6875 v 109.8437 v 109.8438 h -219.6875 h -219.6874 v 82.3828 v 82.3828 h -109.8439 h -109.843763706055 v 109.8437 v 109.8439 h 329.531363706055 h 329.5312 v 219.6874 v 219.6875 h 109.8437 h 109.8438 v 109.8437 v 109.8438 h 302.07034 h 302.0703 v -109.8438 v -109.8437 h 219.6875 h 219.6876 v -109.8437 v -109.8438 h 219.6874 h 219.6875 v -109.8437 v -109.8437 h -109.8437 h -109.8438 v -109.8439 v -109.8437 h -109.8437 h -109.8437 v -82.3828 v -82.3828 h 219.6874 h 219.6875 v 82.3828 v 82.3828 h 109.8437 h 109.8439 v 109.8437 v 109.8439 h 82.3828 h 82.3828 v -109.8439 v -109.8437 h 109.8437 h 109.8437 v 109.8437 v 109.8439 h 109.8438 h 109.8437 v 109.8437 v 109.8437 h -219.6875 h -219.6874 v 109.8438 v 109.8437 h -82.3828 h -82.3828 v 109.8437 v 109.8438 h 82.3828 h 82.3828 v 109.8438 v 109.8437 h -82.3828 h -82.3828 v -109.8437 v -109.8438 h -109.8439 h -109.8437 v -109.8438 v -109.8437 h -109.8437 h -109.8438 v 329.5313 v 329.5312 h -109.8437 h -109.8437 v -109.8437 v -109.8438 h -109.8438 h -109.8438 v 219.6875 v 219.6875 h 109.8438 h 109.8438 v 82.3828 v 82.3828 h -109.8438 h -109.8438 v 439.375 v 439.3751 h 109.8438 h 109.8438 v -219.6876 v -219.6875 h 109.8437 h 109.8437 v -109.8437 v -109.8437 h 109.8438 h 109.8437 v -411.9142 v -411.914 h 109.8437 h 109.8439 v 109.8438 v 109.8437 h 82.3828 h 82.3828 v -109.8437 v -109.8438 h 109.8437 h 109.8437 v 109.8438 v 109.8437 h 109.8438 h 109.8437 v -109.8437 v -109.8438 h -109.8437 h -109.8438 v -219.6875 v -219.6875 h 109.8438 h 109.8437 v -109.8437 v -109.8438 h 109.8437 h 109.8439 v 631.6016 v 631.6015 h -109.8439 h -109.8437 v -82.3828 v -82.3828 h -109.8437 h -109.8438 v 82.3828 v 82.3828 h 109.8438 h 109.8437 v 219.6876 v 219.6874 h -109.8437 h -109.8438 v 109.8438 v 109.8437 h -109.8437 h -109.8437 v -411.914 v -411.9141 h -82.3828 h -82.3828 v 302.0704 v 302.0702 h -109.8439 h -109.8437 v 109.8438 v 109.8437 h 192.2266 h 192.2266 v 109.8437 v 109.8439 h 109.8437 h 109.8437 v -109.8439 v -109.8437 h 109.8438 h 109.8437 v 109.8437 v 109.8439 h 109.8437 h 109.8439 v -109.8439 v -109.8437 h -109.8439 h -109.8437 v -109.8437 v -109.8438 h 109.8437 h 109.8439 v -219.6874 v -219.6876 h 219.6875 h 219.6874 v 109.8438 v 109.8438 h -109.8437 h -109.8437 v 329.5312 v 329.5313 h 109.8437 h 109.8437 v -219.6876 v -219.6875 h 109.8437 h 109.8438 v 219.6875 v 219.6876 h 109.8438 h 109.8438 v -109.8439 v -109.8437 h 82.3828 h 82.3828 v -109.8437 v -109.8438 h 109.8437 h 109.8437 v 219.6875 v 219.6876 h 219.6875 h 219.6876 v -109.8439 v -109.8437 h -109.8437 h -109.8439 v -109.8437 v -109.8438 h 109.8439 h 109.8437 v -302.0702 v -302.0704 h 109.8437 h 109.8437 v -439.375 v -439.375 h -109.8437 h -109.8437 v -109.8437 v -109.8438 h 109.8437 h 109.8437 v -302.0704 v -302.0702 h 109.8438 h 109.8437 v 82.3828 v 82.3828 h 109.8437 h 109.8439 v 109.8437 v 109.8439 h 109.8437 h 109.8438 v 109.8437 v 109.8437 h -109.8438 h -109.8437 v 219.6875 v 219.6875 h 109.8437 h 109.8438 v -219.6875 v -219.6875 h 82.3828 h 82.3828 v -109.8437 v -109.8437 h 109.8437 h 109.8437 v 219.6874 v 219.6875 h -109.8437 h -109.8437 v 109.8437 v 109.8438 h 439.375 h 439.3749 v -109.8438 v -109.8437 h -219.6874 h -219.6875 v -109.8437 v -109.8438 h 109.8437 h 109.8438 v -109.8437 v -109.8437 h -219.6875 h -219.6876 v -192.2267 v -192.2265 h -192.2265 h -192.2265 v -109.8438 v -109.8437 h 411.914 h 411.9141 v -109.8437 v -109.8437 h -219.6875 h -219.6876 v -109.8439 v -109.8437 h -109.8437 h -109.8437 v -109.8438 v -109.8437 h 109.8437 h 109.8437 v -109.8437 v -109.8438 h 219.6876 h 219.6875 v -109.8437 v -109.8439 h -219.6875 h -219.6876 v -109.8437 v -109.8437 h -109.8437 h -109.8437 v -82.3828 v -82.3828 h -82.3828 h -82.3828 v -219.6875 v -219.6876 h -109.8438 h -109.8437 v -109.8437 v -109.8437 h 302.0703 h 302.0702 v -109.8438 v -109.8437 h 109.8439 h 109.8437 v 109.8437 v 109.8438 h 109.8437 h 109.8438 v -329.5312 v -329.5313 h -219.6875 h -219.6876 v 109.8437 v 109.8437 h -109.8437 h -109.8437 v -219.6874 v -219.6875 h 109.8437 h 109.8437 v -82.38279 v -82.3828 h 109.8439 h 109.8437 v -219.6876 v -219.6875 h -109.8437 h -109.8439 v 109.8438 v 109.8437 h -109.8437 h -109.8437 v -109.8437 v -109.8438 h -302.0703 h -302.0704 v 219.6875 v 219.6876 h -219.6875 h -219.6874 v -109.8437 v -109.8439 h 109.8437 h 109.8437 v -329.5316 v -329.53117129395 h -961.1327 h -961.1328 v 109.84375129395 v 109.84372 h 109.8437 h 109.8438 v 219.6878 v 219.6875 h -109.8438 h -109.8437 v -109.8437 v -109.8438 h -219.6876 h -219.6875 v -219.6878 v -219.68747129395 h -192.2265 h -192.2265 v 109.84375129395 v 109.84372 h 82.3828 h 82.3828 v 109.8437 v 109.8441 h -82.3828 h -82.3828 v -109.8441 v -109.8437 h -109.8439 h -109.8437 v -109.84372 v -109.84375129395 h -109.8437 h -109.8438 v 109.84375129395 v 109.84372 h -109.8437 h -109.8437 v -109.84372 v -109.84375129395 z m 439.375,219.68747129395 h 109.8437 v 219.6878 v 219.6875 h 109.8437 h 109.8439 v 109.8439 v 109.8437 h -109.8439 h -109.8437 v 82.3828 v 82.38279 h 109.8437 h 109.8439 v 109.8437 v 109.8438 h 82.3828 h 82.3828 v -109.8438 v -109.8437 h 109.8437 h 109.8437 v 109.8437 v 109.8438 h 109.8438 h 109.8437 v 109.8437 v 109.8437 h 109.8437 h 109.8439 v -219.6874 v -219.6875 h -109.8439 h -109.8437 v -82.38279 v -82.3828 h -219.6875 h -219.6874 v -109.8437 v -109.8439 h 329.5312 h 329.5313 v 192.2267 v 192.22649 h 109.8437 h 109.8438 v -82.38279 v -82.3828 h 109.8437 h 109.8437 v -219.6876 v -219.6875 h 109.8437 h 109.8438 v -109.8441 v -109.8437 h 109.8438 h 109.8438 v 109.8437 v 109.8441 h 82.3828 h 82.3828 v 109.8438 v 109.8437 h 109.8437 h 109.8437 v -219.6875 v -219.6878 h 109.8438 h 109.8437 v 109.8437 v 109.8441 h 109.8439 h 109.8437 v 109.8438 v 109.8437 h -109.8437 h -109.8439 v 109.8439 v 109.8437 h 109.8439 h 109.8437 v 411.91399 v 411.9141 h -109.8437 h -109.8439 v -109.8437 v -109.8439 h -109.8437 h -109.8438 v 109.8439 v 109.8437 h -302.0702 h -302.0704 v 219.6875 v 219.6874 h 109.8438 h 109.8438 v -109.8437 v -109.8437 h 82.3828 h 82.3828 v 109.8437 v 109.8437 h 109.8437 h 109.8437 v -109.8437 v -109.8437 h 109.8438 h 109.8437 v 109.8437 v 109.8437 h -109.8437 h -109.8438 v 219.6876 v 219.6875 h -109.8437 h -109.8437 v 82.3828 v 82.3828 h -82.3828 h -82.3828 v -82.3828 v -82.3828 h -109.8438 h -109.8438 v 82.3828 v 82.3828 h 109.8438 h 109.8438 v 219.6874 v 219.6876 h 82.3828 h 82.3828 v 219.6875 v 219.6875 h -82.3828 h -82.3828 v 109.8437 v 109.8439 h 82.3828 h 82.3828 v 302.0702 v 302.0703 h -82.3828 h -82.3828 v 109.8437 v 109.8439 h 192.2265 h 192.2265 v -109.8439 v -109.8437 h 219.6875 h 219.6876 v 109.8437 v 109.8439 h -109.8437 h -109.8439 v 109.8437 v 109.8437 h -219.6875 h -219.6874 v 109.8438 v 109.8437 h -82.3828 h -82.3828 v 109.8437 v 109.8438 h -219.6876 h -219.6875 v -109.8438 v -109.8437 h -109.8437 h -109.8437 v -109.8437 v -109.8438 h -109.8438 h -109.8437 v -109.8437 v -109.8437 h 109.8437 h 109.8438 v 109.8437 v 109.8437 h 109.8437 h 109.8437 v 109.8438 v 109.8437 h 109.8437 h 109.8438 v -219.6875 v -219.6874 h -109.8438 h -109.8437 v -109.8439 v -109.8437 h 219.6875 h 219.6876 v -82.3828 v -82.3828 h -219.6876 h -219.6875 v -109.8438 v -109.8437 h 109.8437 h 109.8438 v -219.6874 v -219.6876 h -219.6875 h -219.6874 v 109.8437 v 109.8439 h -329.5314 h -329.5312 v -219.6876 v -219.6875 h 219.6875 h 219.6876 v -109.8437 v -109.8438 h 109.8437 h 109.8438 v -109.8437 v -109.8439 h 219.6874 h 219.6875 v -109.8437 v -109.8437 h -219.6875 h -219.6874 v -192.2265 v -192.2266 h -109.8438 h -109.8437 v 109.8438 v 109.8437 h -329.5313 h -329.5312 v -109.8437 v -109.8438 h 329.5312 h 329.5313 v -219.6876 v -219.6874 h -109.8439 h -109.8437 v 109.8437 v 109.8437 h -109.8437 h -109.8438 v -219.6874 v -219.6875 h 109.8438 h 109.8437 v -109.8437 v -109.8439 h -219.6875 h -219.6874 v 109.8439 v 109.8437 h -82.3828 h -82.3828 v 109.8437 v 109.8438 h 82.3828 h 82.3828 v 109.8437 v 109.8437 h -82.3828 h -82.3828 v -109.8437 v -109.8437 h -109.8439 h -109.8437 v -109.8438 v -109.8437 h -109.8437 h -109.8438 v -109.8437 v -109.8439 h 109.8438 h 109.8437 v -219.6874 v -219.6875 h -109.8437 h -109.8438 v 109.8437 v 109.8438 h -109.8437 h -109.8437 v -109.8438 v -109.8437 h 109.8437 h 109.8437 v -82.38279 v -82.3828 h 109.8438 h 109.8437 v -109.8437 v -109.8439 h -109.8437 h -109.8438 v -219.6875 v -219.6878 z m 1922.2656,439.3753 h -109.8438 v 109.8439 v 109.8437 h 109.8438 h 109.8438 v -109.8437 v -109.8439 z m 494.2968,219.6876 h -219.6874 v 82.3828 v 82.38279 h -192.2266 h -192.2266 v 109.8437 v 109.8438 h -109.8438 h -109.8437 v -109.8438 v -109.8437 h -109.8437 h -109.8437 v 219.6875 v 219.6874 h -109.8438 h -109.8437 v 109.8439 v 109.8437 h 109.8437 h 109.8438 v -109.8437 v -109.8439 h 219.6874 h 219.6875 v -109.8437 v -109.8437 h 109.8438 h 109.8438 v 109.8437 v 109.8437 h 192.2265 h 192.2265 v -109.8437 v -109.8437 h 109.8438 h 109.8437 v -192.2266 v -192.22649 z m -933.6718,1043.51559 h -109.8437 v 109.8437 v 109.8437 h 109.8437 h 109.8437 v 219.6876 v 219.6875 h 109.8437 h 109.8438 v -219.6875 v -219.6876 h -109.8438 h -109.8437 v -109.8437 v -109.8437 z m 219.6874,1263.2031 h -109.8437 v 109.8438 v 109.8437 h 109.8437 h 109.8438 v 109.8437 v 109.8438 h 109.8438 h 109.8438 v -109.8438 v -109.8437 h -109.8438 h -109.8438 v -109.8437 v -109.8438 z m -439.3749,219.6875 h -109.8437 v 109.8437 v 109.8438 h 109.8437 h 109.8438 v -109.8438 v -109.8437 z m 2361.6406,-2746.09379 h 109.8438 v 109.8439 v 109.8437 h -109.8438 h -109.8437 v -109.8437 v -109.8439 z m -3212.9296,219.6876 h 82.3828 v 82.3828 v 82.38279 h -82.3828 h -82.3828 v -82.38279 v -82.3828 z m 2993.242,164.76559 h 329.5314 v 329.5312 v 329.5313 h -329.5314 h -329.5312 v -329.5313 v -329.5312 z m 0,219.6875 h -109.8437 v 109.8437 v 109.8437 h 109.8437 h 109.8439 v -109.8437 v -109.8437 z m -219.6874,659.0625 h 109.8437 v 109.8437 v 109.8437 h -109.8437 h -109.8438 v -109.8437 v -109.8437 z m -4064.2187,439.375 h 109.8437 v 109.8438 v 109.8437 h -109.8437 h -109.8438 v -109.8437 v -109.8438 z m 988.5937,0 h 219.6876 v 109.8438 v 109.8437 h 82.3828 h 82.3828 v 82.3828 v 82.3828 h 109.8437 h 109.8437 v 109.8437 v 109.8437 h 109.8438 h 109.8437 v 109.8439 v 109.8437 h -219.6875 h -219.6874 v 109.8438 v 109.8437 h -82.3828 h -82.3828 v 109.8437 v 109.8438 h 82.3828 h 82.3828 v 109.8437 v 109.8439 h -82.3828 h -82.3828 v -109.8439 v -109.8437 h -109.8439 h -109.8437 v 109.8437 v 109.8439 h -109.8437 h -109.8438 v 109.8437 v 109.8437 h -219.6874 h -219.6876 v -219.6874 v -219.6876 h 109.8438 h 109.8438 v -329.5312 v -329.5314 h 109.8437 h 109.8437 v -109.8437 v -109.8437 h -109.8437 h -109.8437 v -82.3828 v -82.3828 h 109.8437 h 109.8437 v -109.8437 v -109.8438 z m 0,219.6875 h -219.6875 v 82.3828 v 82.3828 h 219.6875 h 219.6876 v 109.8437 v 109.8437 h 82.3828 h 82.3828 v -109.8437 v -109.8437 h -82.3828 h -82.3828 v -82.3828 v -82.3828 z m -109.8437,384.453 h -109.8438 v 329.5314 v 329.5312 h -109.8437 h -109.8437 v 109.8437 v 109.8439 h 109.8437 h 109.8437 v -109.8439 v -109.8437 h 109.8438 h 109.8437 v -329.5312 v -329.5314 z m 3405.1561,-604.1405 h 109.8439 v 109.8438 v 109.8437 h -109.8439 h -109.8437 v -109.8437 v -109.8438 z m -768.9062,384.4531 h 219.6876 v 109.8437 v 109.8437 h -109.8437 h -109.8439 v 219.6876 v 219.6875 h 109.8439 h 109.8437 v -109.8437 v -109.8438 h 109.8437 h 109.8437 v 109.8438 v 109.8437 h 109.8438 h 109.8437 v -109.8437 v -109.8438 h 109.8437 h 109.8439 v 109.8438 v 109.8437 h 109.8437 h 109.8438 v -109.8437 v -109.8438 h 82.3828 h 82.3828 v -109.8437 v -109.8439 h 109.8437 h 109.8437 v 109.8439 v 109.8437 h -109.8437 h -109.8437 v 109.8438 v 109.8437 h -82.3828 h -82.3828 v 109.8437 v 109.8438 h -109.8438 h -109.8437 v 109.8437 v 109.8439 h 109.8437 h 109.8438 v 109.8437 v 109.8437 h -109.8438 h -109.8437 v 109.8437 v 109.8438 h -109.8439 h -109.8437 v -109.8438 v -109.8437 h -109.8437 h -109.8438 v 109.8437 v 109.8438 h -109.8437 h -109.8437 v -219.6875 v -219.6874 h 219.6874 h 219.6875 v -109.8439 v -109.8437 h -109.8437 h -109.8438 v -109.8438 v -109.8437 h -109.8437 h -109.8437 v 109.8437 v 109.8438 h -109.8437 h -109.8439 v -109.8438 v -109.8437 h -109.8437 h -109.8438 v -109.8437 v -109.8438 h -109.8437 h -109.8437 v -109.8437 v -109.8439 h 109.8437 h 109.8437 v -109.8437 v -109.8437 z m 768.9062,659.0625 h -109.8437 v 109.8437 v 109.8438 h 109.8437 h 109.8439 v -109.8438 v -109.8437 z m -109.8437,-659.0625 h 219.6876 v 109.8437 v 109.8437 h -219.6876 h -219.6875 v -109.8437 v -109.8437 z m -4283.9062,878.75 h 219.6875 v 109.8437 v 109.8439 h -109.8437 h -109.8438 v 109.8437 v 109.8437 h 109.8438 h 109.8437 v 109.8437 v 109.8438 h 109.8437 h 109.8438 v 82.3828 v 82.3828 h -109.8438 h -109.8437 v 109.8437 v 109.8439 h -109.8437 h -109.8438 v 109.8437 v 109.8437 h 109.8438 h 109.8437 v 109.8438 v 109.8437 h -109.8437 h -109.8438 v -109.8437 v -109.8438 h -109.8437 h -109.8437 v -109.8437 v -109.8437 h -192.22674 h -192.2265 v -109.8439 v -109.8437 h 109.8437 h 109.8438 v -82.3828 v -82.3828 h 82.3828 h 82.38294 v 192.2265 v 192.2267 h 109.8437 h 109.8437 v -109.8439 v -109.8437 h 109.8438 h 109.8437 v -82.3828 v -82.3828 h -109.8437 h -109.8438 v -109.8438 v -109.8437 h -192.2265 h -192.22664 v -109.8437 v -109.8437 h 82.3828 h 82.38294 v -109.8439 v -109.8437 z m 1208.2812,439.375 h 109.8439 v 109.8437 v 109.8438 h 82.3828 h 82.3828 v -109.8438 v -109.8437 h 329.5312 h 329.5313 v 109.8437 v 109.8438 h 109.8437 h 109.8438 v 82.3828 v 82.3828 h -219.6875 h -219.6876 v -82.3828 v -82.3828 h -219.6875 h -219.6874 v 82.3828 v 82.3828 h -82.3828 h -82.3828 v -82.3828 v -82.3828 h -109.8439 h -109.8437 v -109.8438 v -109.8437 z m 2306.7188,0 h 109.8437 v 109.8437 v 109.8438 h -109.8437 h -109.8438 v -109.8438 v -109.8437 z m 1290.6641,384.4531 h 82.3828 v 109.8437 v 109.8439 h -82.3828 h -82.3828 v -109.8439 v -109.8437 z m -4256.4453,219.6876 h 109.8438 v 109.8437 v 109.8437 h -109.8438 h -109.8438 v -109.8437 v -109.8437 z m 2965.7812,439.3749 h 109.8437 v 109.8437 v 109.8438 h 109.8439 h 109.8437 v 329.5313 v 329.5312 h -109.8437 h -109.8439 v 192.2265 v 192.2267 h -302.0703 h -302.0702 v -109.8438 v -109.8438 h -109.8438 h -109.8438 v -82.3828 v -82.3828 h 109.8438 h 109.8438 v -109.8438 v -109.8437 h 82.3828 h 82.3828 v -109.8437 v -109.8438 h 109.8437 h 109.8437 v -219.6875 v -219.6875 z m 0,439.375 h -109.8438 v 219.6875 v 219.6875 h 109.8438 h 109.8437 v -219.6875 v -219.6875 z m -1043.5156,0 h 109.8437 v 219.6875 v 219.6875 h -109.8437 h -109.8437 v -219.6875 v -219.6875 z m 439.375,0 h 109.8438 v 109.8438 v 109.8437 h -109.8438 h -109.8438 v -109.8437 v -109.8438 z m 1702.5781,-5547.10966129395 h -109.8437 v 109.84375129395 v 109.84372 h 109.8437 h 109.8438 v -109.84372 v -109.84375129395 z m 384.4531,0 h -109.8437 v 109.84375129395 v 109.84372 h 109.8437 h 109.8437 v -109.84372 v -109.84375129395 z m 659.0625,0 h -109.8437 v 109.84375129395 v 109.84372 h 109.8437 h 109.8437 v -109.84372 v -109.84375129395 z m -329.5312,2141.95336129395 h -219.6876 v 109.8438 v 109.8438 h -109.8437 h -109.8437 v 109.8438 v 109.8437 h 109.8437 h 109.8437 v -109.8437 v -109.8438 h 219.6876 h 219.6875 v -109.8438 v -109.8438 z m 329.5312,439.3751 h -109.8437 v 82.3828 v 82.3828 h 109.8437 h 109.8437 v -82.3828 v -82.3828 z m 0,823.8281 h -109.8437 v 109.8437 v 109.8438 h 109.8437 h 109.8437 v -109.8438 v -109.8437 z m -109.8437,878.75 h -219.6875 v 82.3828 v 82.3828 h 219.6875 h 219.6874 v -82.3828 v -82.3828 z m -6700.46884,604.1406 h -109.843763706054 v 219.6875 v 219.6875 h 219.687663706054 h 219.6874 v -109.8438 v -109.8437 h -109.8437 h -109.8437 v -109.8437 v -109.8438 z m 631.6016,659.0625 h -741.445363706054 v 741.4454 v 741.4453 h 741.445363706054 h 741.44534 v -741.4453 v -741.4454 z m 0,219.6875 h 521.75784 v 521.7579 v 521.7577 h -521.75784 h -521.7577 v -521.7577 v -521.7579 z m 0,219.6875 h -302.0703 v 302.0704 v 302.0702 h 302.0703 h 302.07044 v -302.0702 v -302.0704 z m 5547.10934,-439.375 h -741.4453 v 741.4454 v 741.4453 h 741.4453 h 741.4453 v -741.4453 v -741.4454 z m 0,219.6875 h 521.7579 v 521.7579 v 521.7577 h -521.7579 h -521.7577 v -521.7577 v -521.7579 z m 0,219.6875 h -302.0702 v 302.0704 v 302.0702 h 302.0702 h 302.0704 v -302.0702 v -302.0704 z"
       id="path886"
       inkscape:connector-curvature="0" />
  </g>
</svg>